<svg id="Capa_1" enable-background="new 0 0 512 512" height="512" viewBox="0 0 512 512" width="512" xmlns="http://www.w3.org/2000/svg"><g><path d="m383.051 127.511c-5.168-2.509-11.315-1.846-15.829 1.708l-32.263 25.397c-31.277-66.18-64.798-144.65-65.163-145.503-2.358-5.527-7.787-9.113-13.796-9.113s-11.438 3.586-13.796 9.113c-.364.853-33.885 79.322-65.163 145.503l-32.263-25.397c-4.514-3.554-10.662-4.217-15.829-1.708-5.168 2.509-8.449 7.75-8.449 13.494v145.12c0 74.715 60.785 135.5 135.5 135.5s135.5-60.785 135.5-135.5v-145.12c0-5.745-3.281-10.985-8.449-13.494z" fill="#e27a4e"/><path d="m391.5 286.125v-145.12c0-5.745-3.281-10.985-8.449-13.494s-11.315-1.846-15.829 1.708l-32.263 25.397c-31.277-66.18-64.798-144.65-65.163-145.503-2.358-5.527-7.787-9.113-13.796-9.113v421.625c74.715 0 135.5-60.785 135.5-135.5z" fill="#dc455b"/><path d="m299.506 259.336c-15.104-29.812-29.957-55.076-30.581-56.137-2.696-4.578-7.612-7.387-12.925-7.387s-10.229 2.81-12.925 7.387c-.625 1.061-15.477 26.324-30.581 56.137-31.744 62.659-31.744 81.009-31.744 87.039 0 41.493 33.757 75.25 75.25 75.25s75.25-33.757 75.25-75.25c0-6.03 0-24.38-31.744-87.039z" fill="#efc277"/><path d="m331.25 346.375c0-6.03 0-24.38-31.744-87.039-15.104-29.812-29.957-55.076-30.581-56.137-2.696-4.578-7.612-7.387-12.925-7.387v225.812c41.493.001 75.25-33.756 75.25-75.249z" fill="#e9a43a"/><path d="m436.75 391.625h-361.5c-8.284 0-15 6.716-15 15v90.375c0 8.284 6.716 15 15 15h361.5c8.284 0 15-6.716 15-15v-90.375c0-8.284-6.716-15-15-15z" fill="#773941"/><path d="m436.75 391.625h-180.75v120.375h180.75c8.284 0 15-6.716 15-15v-90.375c0-8.284-6.716-15-15-15z" fill="#5f2241"/><circle cx="256" cy="451.812" fill="#f5dd90" r="45.188"/><path d="m301.188 451.812c0-24.956-20.231-45.188-45.188-45.188v90.376c24.956 0 45.188-20.231 45.188-45.188z" fill="#efc277"/><path d="m256 512c-33.188 0-60.188-27-60.188-60.188s27-60.188 60.188-60.188 60.188 27 60.188 60.188-27 60.188-60.188 60.188zm0-90.375c-16.646 0-30.188 13.542-30.188 30.188s13.542 30.187 30.188 30.187 30.188-13.542 30.188-30.188-13.542-30.187-30.188-30.187z" fill="#8f5041"/><path d="m286.188 451.812c0 16.646-13.542 30.188-30.188 30.188v30c33.188 0 60.188-27 60.188-60.188s-27-60.188-60.188-60.188v30c16.646.001 30.188 13.543 30.188 30.188z" fill="#773941"/></g></svg>