<?xml version="1.0" encoding="iso-8859-1"?>
<!-- Generator: Adobe Illustrator 19.0.0, SVG Export Plug-In . SVG Version: 6.00 Build 0)  -->
<svg version="1.1" id="Capa_1" xmlns="http://www.w3.org/2000/svg" xmlns:xlink="http://www.w3.org/1999/xlink" x="0px" y="0px"
	 viewBox="0 0 477.753 477.753" style="enable-background:new 0 0 477.753 477.753;" xml:space="preserve">
<g>
	<g>
		<path d="M146.45,144.362v-27.68c0-4.418-3.582-8-8-8s-8,3.582-8,8v34.16c-4.96,13.84-52.88,146.8-107.52,196.64l-7.36-21.04
			c-1.458-4.175-6.025-6.378-10.2-4.92s-6.378,6.025-4.92,10.2l11.12,32c0.139,0.304,0.3,0.598,0.48,0.88
			c0.198,0.449,0.439,0.878,0.72,1.28c0.414,0.372,0.871,0.694,1.36,0.96l0.8,0.8c0.405,0.254,0.834,0.468,1.28,0.64l0.96,0.48
			c0.822,0.129,1.658,0.129,2.48,0h174.72c-0.215-0.303-0.402-0.624-0.56-0.96l-4.72-15.04l-7.36-23.44
			c-1.06-3.38,0.82-6.98,4.2-8.04s6.98,0.82,8.04,4.2l8.56,27.28l0.64,2l2-2c46.96-44.72,83.6-134.16,104-192.72
			c1.867-5.44,3.627-10.667,5.28-15.68H146.45z"/>
	</g>
</g>
<g>
	<g>
		<path d="M324.93,153.802l-2.16,6.56c-19.04,55.76-53.76,142.48-99.84,192.64c-5.165,5.689-10.697,11.034-16.56,16h119.2
			L324.93,153.802z"/>
	</g>
</g>
<g>
	<g>
		<path d="M474.002,318.694c-0.293-0.184-0.597-0.348-0.912-0.492c-3.921-2.036-8.75-0.508-10.786,3.414
			c-0.005,0.009-0.009,0.018-0.014,0.026l-13.44,25.84c-64-68.08-101.92-176.96-108-195.04v46.08l0.48,154.48v16h109.6
			c0.717,0.093,1.443,0.093,2.16,0h0.8l1.28-0.64l0.72-0.56l0.96-0.88l0.56-0.8l0.56-0.72l18.56-35.68
			C478.877,325.978,477.745,321.041,474.002,318.694z"/>
	</g>
</g>
<g>
</g>
<g>
</g>
<g>
</g>
<g>
</g>
<g>
</g>
<g>
</g>
<g>
</g>
<g>
</g>
<g>
</g>
<g>
</g>
<g>
</g>
<g>
</g>
<g>
</g>
<g>
</g>
<g>
</g>
</svg>
